<?xml version="1.0" standalone="no"?><!DOCTYPE svg PUBLIC "-//W3C//DTD SVG 1.1//EN" "http://www.w3.org/Graphics/SVG/1.1/DTD/svg11.dtd"><svg t="1696253139742" class="icon" viewBox="0 0 1024 1024" version="1.1" xmlns="http://www.w3.org/2000/svg" p-id="9676" xmlns:xlink="http://www.w3.org/1999/xlink" width="1em" height="1em"><path d="M378.434783 589.913043c-20.034783 0-41.182609-8.904348-55.652174-23.373913-14.469565-14.469565-22.26087-34.504348-22.26087-54.53913 0-20.034783 8.904348-40.069565 22.26087-55.652174 14.469565-14.469565 34.504348-22.26087 55.652174-22.260869 20.034783 0 40.069565 8.904348 54.53913 22.260869 14.469565 14.469565 23.373913 34.504348 23.373913 55.652174 0 20.034783-8.904348 40.069565-23.373913 54.53913-14.469565 14.469565-34.504348 23.373913-54.53913 23.373913z m321.669565-23.373913c14.469565-14.469565 23.373913-34.504348 23.373913-54.53913 0-20.034783-8.904348-40.069565-23.373913-55.652174-14.469565-14.469565-34.504348-22.26087-54.539131-22.260869-20.034783 0-41.182609 8.904348-55.652174 22.260869-14.469565 14.469565-22.26087 34.504348-22.260869 55.652174 0 20.034783 8.904348 40.069565 22.260869 54.53913 14.469565 14.469565 34.504348 23.373913 55.652174 23.373913 20.034783 0 40.069565-8.904348 54.539131-23.373913z" p-id="9677" fill="#a7a7a7"></path></svg>