<?xml version="1.0" encoding="utf-8"?>
<!-- Generator: Adobe Illustrator 23.1.0, SVG Export Plug-In . SVG Version: 6.00 Build 0)  -->
<svg version="1.1" id="图层_1" xmlns="http://www.w3.org/2000/svg" xmlns:xlink="http://www.w3.org/1999/xlink" x="0px" y="0px"
	 viewBox="0 0 800 800" style="enable-background:new 0 0 800 800;" xml:space="preserve">
<style type="text/css">
	.st0{fill:#DBE1EA;}
	.st1{fill:url(#SVGID_1_);}
	.st2{fill:#FFFFFF;}
	.st3{fill:url(#SVGID_2_);}
	.st4{fill:#125488;}
	.st5{fill:url(#SVGID_3_);}
	.st6{fill:url(#SVGID_4_);}
	.st7{fill:url(#SVGID_5_);}
	.st8{fill:url(#SVGID_6_);}
	.st9{fill:url(#SVGID_7_);}
</style>
<g>
	<g>
		<g>
			<g>
				<path class="st2" d="M545.83,411.08c0.88,0.51,1.65,1.13,2.3,1.83h0.51C547.8,412.14,546.85,411.52,545.83,411.08z"/>
				<path class="st2" d="M571.9,331.27h-74.55c1.86-5.74,3.73-11.48,5.59-17.22c3.99-12.25,7.97-24.5,11.88-36.74
					c0.62-1.9,1.24-3.77,1.86-5.67c2.19-6.51,4.5-13.23,5.67-20.47c2.27-13.67-2.08-22.37-6.18-27.27
					c-4.13-5.01-12.1-11.04-26.51-11.37h-2.3c-23.76,0-45.44,8.08-64.45,24.06c-13.16,11.04-26.4,22.37-39.19,33.34l3.73-11.92
					l43.76-140.83c0.99-3.22,0.48-6.69-1.43-9.47c-1.9-2.78-4.97-4.5-8.3-4.75c-1.43-0.07-2.67-0.18-3.73-0.26
					c-2.19-0.18-4.06-0.33-6.07-0.33l-4.83-0.04c-4.86,0-9.76,0.04-14.66,0.04c-4.86,0.04-9.72,0.04-14.59,0.04
					c-10.89,0-19.23-0.07-27.09-0.22h-0.62c-10.64,0-17.69,5.41-20.99,16.09c-18.79,60.73-37.99,122.4-56.56,182.03l-20.47,65.84
					c-0.62,2.05-1.1,3.99-1.61,6.22c-0.26,1.06-0.51,2.23-0.84,3.55c-0.84,3.25-0.07,6.73,2.01,9.4c0.37,0.48,0.77,0.91,1.21,1.32
					c-4.24,1.5-7.31,5.56-7.31,10.35v4.97c0,6.07,4.94,10.97,10.97,10.97h2.34c-8.41,2.52-16.01,6.54-22.78,11.99
					c-4.97,4.02-8.96,8.45-12.03,13.42c-0.4,0.62-0.77,1.24-1.1,1.86c-1.06,1.86-2.01,3.84-2.82,5.89
					c-0.29,0.69-0.55,1.39-0.77,2.08c-0.73,2.08-1.32,4.28-1.79,6.51c-0.69,3.25,0.11,6.62,2.19,9.18c0.77,0.95,1.68,1.76,2.71,2.41
					c0.37,0.22,0.73,0.44,1.1,0.58c0.69,0.33,1.39,0.59,2.16,0.77c0.8,0.18,1.61,0.29,2.45,0.29h75.39
					c-2.82,8.74-5.45,17-8.15,25.23c-1.68,5.12-3.4,10.24-5.16,15.32c-3.25,9.51-6.62,19.34-9.51,29.25
					c-4.72,16.12-2.52,26.8,1.02,33.56c0.18,0.33,0.37,0.66,0.59,0.99c0.55,0.99,1.13,1.9,1.75,2.71
					c4.24,5.67,12.72,12.39,28.99,12.39c2.38,0,4.86-0.11,7.42-0.4c0.22-0.04,0.44-0.07,0.66-0.07
					c21.83-1.94,42.04-10.79,60.03-26.29c11.66-10.05,23.54-20.22,35.21-30.16l-28.77,92.75l-18.43,59.34
					c-1.02,3.36-0.44,6.98,1.64,9.76c0.8,1.13,1.83,2.05,3,2.78c0.29,0.18,0.59,0.37,0.88,0.51c1.54,0.95,3.29,1.5,5.12,1.57
					c1.54,0.07,2.89,0.15,4.09,0.22c2.34,0.15,4.35,0.26,6.43,0.26h1.83c5.41,0,10.86-0.04,16.27-0.07c5.41,0,10.79-0.04,16.2-0.04
					c9.43,0,17.15,0.07,24.2,0.29c0.44,0,0.84,0.04,1.24,0.04c15.68,0,20.55-10.02,22.89-17.51
					c18.86-61.35,38.28-123.61,57.07-183.86c6.47-20.84,12.98-41.68,19.49-62.52c0.66-2.23,1.21-4.39,1.76-6.69
					c0.26-1.06,0.51-2.23,0.84-3.47c0.77-3.14,0.15-6.47-1.72-9.1c-0.48-0.66-1.02-1.24-1.61-1.76h-0.51
					c-0.66-0.69-1.43-1.32-2.3-1.83c1.02,0.44,1.97,1.06,2.81,1.83h6.91c6.07,0,10.97-4.9,10.97-10.97v-4.97
					c0-6.07-4.9-10.97-10.97-10.97H542.8c8.52-2.71,16.38-7.13,23.25-13.05c6.11-5.26,14.44-13.97,16.6-28.7
					c0.15-0.66,0.22-1.35,0.22-2.01C582.87,336.17,577.93,331.27,571.9,331.27z M322.96,386c7.86-2.78,15.36-7.24,22.59-13.34
					c16.78-14.22,34-28.48,50.67-42.3c-1.65,5.48-3.22,10.89-4.64,16.38c-3.4,12.91-2.16,23.29,3.66,30.93
					c2.78,3.62,6.43,6.4,10.93,8.34H322.96z M473.22,414.95c-0.51,0.22-1.06,0.48-1.61,0.73c-5.05,2.49-9.91,5.67-14.51,9.58
					c-11.26,9.54-22.81,19.12-34,28.37l-10.68,8.88c-2.63,2.16-5.23,4.35-7.86,6.51c0.04-0.11,0.07-0.22,0.11-0.29l0.11-0.44
					c-0.29,0.22-0.55,0.48-0.84,0.69c0.07-0.15,0.11-0.29,0.15-0.44l0.66-2.41c2.27-8.04,4.61-16.34,5.52-25.15
					c1.35-13.02-5.01-23.36-16.82-28.08h85.07C476.73,413.53,474.98,414.19,473.22,414.95z"/>
			</g>
		</g>
		<g>
			<linearGradient id="SVGID_1_" gradientUnits="userSpaceOnUse" x1="415.9724" y1="72.6674" x2="415.9724" y2="348.6263">
				<stop  offset="0" style="stop-color:#37CAEC"/>
				<stop  offset="0.5078" style="stop-color:#2A93D5"/>
				<stop  offset="1" style="stop-color:#125488"/>
			</linearGradient>
			<path class="st1" d="M482.64,342.22c30.05,0,59.17,0,89.24,0c-1.39,10.26-6.55,16.86-13,22.44
				c-10.67,9.21-23.45,13.62-37.37,13.75c-32.33,0.29-64.67,0.31-97,0.01c-19.87-0.18-27.34-9.78-22.31-28.9
				c4.28-16.25,9.65-32.2,15.3-50.77c-3.94,3.13-6.16,4.83-8.3,6.61c-23.6,19.61-47.31,39.08-70.72,58.91
				c-11.49,9.73-24.15,15-39.41,14.37c-12.61-0.51-25.25-0.11-38.98-0.11c0.98-3.96,1.5-6.6,2.29-9.15
				c25.7-82.62,51.47-165.21,77.03-247.87c1.83-5.93,4.43-8.49,10.93-8.37c20.44,0.38,40.89,0.13,61.34,0.17
				c2.43,0,4.86,0.31,9.08,0.59c-19.4,62.42-38.54,123.97-57.67,185.51c0.36,0.41,0.72,0.81,1.09,1.22c2.17-1.7,4.4-3.33,6.49-5.11
				c19.78-16.85,39.42-33.86,59.32-50.57c17.13-14.38,36.87-21.95,59.45-21.46c16.09,0.35,24.76,9.92,22.13,25.87
				c-1.38,8.36-4.56,16.45-7.17,24.59c-6.32,19.73-12.78,39.42-19.16,59.14C484.39,335.67,483.74,338.31,482.64,342.22z"/>
		</g>
	</g>
	<g>
		<g>
			<rect x="256.33" y="396.95" class="st4" width="299.22" height="4.99"/>
		</g>
	</g>
	<g>
		<g>
			<linearGradient id="SVGID_2_" gradientUnits="userSpaceOnUse" x1="364.6197" y1="739.858" x2="386.4612" y2="403.835">
				<stop  offset="0" style="stop-color:#FFFFFF"/>
				<stop  offset="1" style="stop-color:#125488"/>
			</linearGradient>
			<path class="st3" d="M435.72,499.05c-2.05,1.59-4.16,3.1-6.14,4.78c-18.93,16.13-37.89,32.24-56.75,48.47
				c-15.55,13.38-33.28,21.56-53.84,23.25c-0.28,0.02-0.55,0.07-0.82,0.1c-23.9,2.38-34.94-11.13-27.68-34.22
				c4.81-15.28,10.11-30.41,15.09-45.64c4.09-12.5,8.05-25.05,12.48-38.87c-30.56,0-59.72,0-89.96,0
				c2.22-10.54,7.48-17.69,14.66-23.49c11.22-9.07,24.42-12.74,38.6-12.81c30.95-0.15,61.9-0.1,92.86,0
				c3.84,0.01,7.76,0.44,11.5,1.31c9.37,2.19,14.64,8.29,13.65,17.91c-0.9,8.69-3.47,17.26-5.84,25.74
				c-3.02,10.82-6.58,21.49-10.55,34.31c3.53-2.58,5.29-3.72,6.89-5.04c23.62-19.58,47.46-38.9,70.72-58.91
				c12.63-10.87,26.48-16.35,43.19-15.51c11.74,0.59,23.54,0.11,36.52,0.11c-1.08,4.38-1.64,7.27-2.5,10.06
				c-25.55,82.08-51.21,164.13-76.58,246.27c-2.04,6.61-4.83,9.23-12.03,9.07c-22.51-0.49-45.04-0.18-69.67-0.18
				c19.5-62.8,38.58-124.25,57.67-185.71C436.69,499.72,436.2,499.38,435.72,499.05z"/>
		</g>
		<g>
			<linearGradient id="SVGID_3_" gradientUnits="userSpaceOnUse" x1="376.9136" y1="719.3636" x2="384.4741" y2="445.9249">
				<stop  offset="0" style="stop-color:#FFFFFF;stop-opacity:0.3"/>
				<stop  offset="1" style="stop-color:#125488"/>
			</linearGradient>
			<path class="st5" d="M436.46,499.2c-2.1,1.64-4.26,3.21-6.29,4.94c-18.79,16.01-37.63,31.98-56.32,48.11
				c-15.57,13.44-33.25,21.89-53.9,23.67c-0.28,0.02-0.55,0.07-0.83,0.1c-25.36,2.77-35.24-10.78-28.06-35.23
				c4.37-14.89,9.74-29.49,14.57-44.24c4.13-12.6,8.13-25.24,12.76-39.63c-15.91,0-30.7,0-45.49,0c-14.6,0-29.21,0-44.9,0
				c2.47-10.71,7.7-17.91,14.95-23.72c11.3-9.04,24.55-12.69,38.78-12.75c30.79-0.14,61.58-0.09,92.37,0
				c3.86,0.01,7.79,0.39,11.56,1.19c9.88,2.1,15.37,8.3,14.34,18.29c-0.9,8.72-3.53,17.32-5.91,25.82
				c-3.03,10.84-6.57,21.54-8.45,33.16c11.26-9.32,22.54-18.63,33.79-27.98c14.94-12.41,29.93-24.76,44.76-37.3
				c10.62-8.98,22.58-13.71,36.62-13.32c10.53,0.29,21.08,0,31.62,0.06c2.65,0.02,5.3,0.39,8.91,0.67
				c-0.98,3.87-1.57,6.78-2.44,9.59c-25.56,82.12-51.26,164.2-76.56,246.41c-2.3,7.48-5.54,9.98-13.32,9.75
				c-19.59-0.58-39.21-0.16-58.81-0.19c-2.73,0-5.46-0.24-10.02-0.46c19.45-62.64,38.62-124.34,57.78-186.05
				C437.46,499.82,436.96,499.51,436.46,499.2z"/>
		</g>
	</g>
</g>
</svg>
