<?xml version="1.0" encoding="utf-8"?>
<!-- Generator: Adobe Illustrator 23.1.0, SVG Export Plug-In . SVG Version: 6.00 Build 0)  -->
<svg version="1.1" id="图层_1" xmlns="http://www.w3.org/2000/svg" xmlns:xlink="http://www.w3.org/1999/xlink" x="0px" y="0px"
	 viewBox="0 0 800 800" style="enable-background:new 0 0 800 800;" xml:space="preserve">
<style type="text/css">
	.st0{fill:url(#SVGID_1_);}
	.st1{fill:#5995FD;}
	.st2{fill:url(#SVGID_2_);}
	.st3{fill:url(#SVGID_3_);}
	.st4{fill:url(#SVGID_4_);}
	.st5{fill:url(#SVGID_5_);}
	.st6{fill:url(#SVGID_6_);}
	.st7{fill:none;stroke:#2E4C81;stroke-miterlimit:10;}
	.st8{fill:#2E4C81;}
	.st9{font-family:'zcoolwenyiti';}
	.st10{font-size:27.2093px;}
	.st11{letter-spacing:20;}
	.st12{letter-spacing:21;}
</style>
<linearGradient id="SVGID_1_" gradientUnits="userSpaceOnUse" x1="353.3738" y1="189.3238" x2="516.8008" y2="442.4362">
	<stop  offset="0" style="stop-color:#5995FD"/>
	<stop  offset="0.5208" style="stop-color:#4370BE"/>
	<stop  offset="1" style="stop-color:#22385F"/>
</linearGradient>
<path class="st0" d="M435.09,335.73v36.82H519v37.31H400.9v-74.13c0-7.6,2.29-14.67,6.26-20.54c1.31-1.97,2.84-3.81,4.52-5.5
	c6.65-6.65,15.86-10.78,26.03-10.78H519v36.82H435.09z"/>
<g>
	<path class="st1" d="M308.86,237.62c0,8.55-5.44,15.83-13.07,18.54c-2.08,0.79-4.31,1.18-6.65,1.18
		c-10.89,0-19.72-8.84-19.72-19.72c0-1.79,0.24-3.5,0.71-5.13c2.24-8.41,9.91-14.59,19.01-14.59
		C300.03,217.9,308.86,226.73,308.86,237.62z"/>
</g>
<linearGradient id="SVGID_2_" gradientUnits="userSpaceOnUse" x1="321.8405" y1="209.6839" x2="485.2674" y2="462.7964">
	<stop  offset="0" style="stop-color:#5995FD"/>
	<stop  offset="0.5208" style="stop-color:#4370BE"/>
	<stop  offset="1" style="stop-color:#22385F"/>
</linearGradient>
<path class="st2" d="M519,233.67v38.95h-95.4L372,326.42l0.03,0.03l-24.96,27.09l-42.21-38.92l-1.26-1.16v96.4h-34.19V292.74
	c0-0.53,0.03-1.05,0.08-1.55c0.66-6.84,5.29-12.83,12.15-16.59c4.71-2.58,10.47-4.1,16.7-4.1c4.13,0,8.05,0.66,11.57,1.87
	c2.6,0.87,5.02,2.05,7.15,3.44c0.08,0.05,0.13,0.13,0.21,0.18l5.97,5.52l23.67,21.8l30.32-31.63l21.04-21.93l15.38-16.07H519z"/>
<g>
	<linearGradient id="SVGID_3_" gradientUnits="userSpaceOnUse" x1="249.5045" y1="449.185" x2="250.8793" y2="536.484">
		<stop  offset="0" style="stop-color:#5995FD"/>
		<stop  offset="0.5208" style="stop-color:#4370BE"/>
		<stop  offset="1" style="stop-color:#22385F"/>
	</linearGradient>
	<path class="st3" d="M230.37,457.09c-1.39,2.97-2.95,5.84-4.67,8.62c-1.73,2.78-3.36,5.25-4.9,7.4c-1.54,2.15-2.88,3.9-3.99,5.26
		c-1.12,1.36-1.74,2.1-1.86,2.22l-5.36-4.72c0-0.06,0.51-0.71,1.54-1.95c1.03-1.24,2.28-2.87,3.77-4.9
		c1.48-2.03,3.04-4.34,4.67-6.95c1.63-2.6,3.06-5.26,4.27-7.99L230.37,457.09z M211.13,489.77h77.62v7.17h-48.3l-14.34,18.88
		l43.76-3.63l-4.27-6.9l6.08-3.81l12.53,20.33l-5.99,3.72l-4.08-6.54l-57.01,4.72v-7.9l14.43-18.88h-20.43V489.77z M225.38,473.97
		h49.11v7.17h-49.11V473.97z M276.94,455.09l13.34,22.24l-6.08,3.72l-11.35-18.79h-40.94v-7.17H276.94z"/>
	<linearGradient id="SVGID_4_" gradientUnits="userSpaceOnUse" x1="338.7586" y1="447.7794" x2="340.1334" y2="535.0784">
		<stop  offset="0" style="stop-color:#5995FD"/>
		<stop  offset="0.5208" style="stop-color:#4370BE"/>
		<stop  offset="1" style="stop-color:#22385F"/>
	</linearGradient>
	<path class="st4" d="M342.49,503.84c-2.24,2.66-4.8,5.01-7.67,7.04c-2.88,2.03-5.83,3.8-8.85,5.31c-3.03,1.51-6.01,2.78-8.94,3.81
		c-2.94,1.03-5.58,1.86-7.94,2.5c-2.36,0.64-4.3,1.1-5.81,1.41c-1.51,0.3-2.36,0.48-2.54,0.54l-1.09-7.08c0.06,0,0.73-0.12,2-0.36
		c1.27-0.24,2.92-0.64,4.95-1.18c2.03-0.55,4.33-1.26,6.9-2.13c2.57-0.88,5.2-1.95,7.9-3.22c2.69-1.27,5.32-2.75,7.9-4.45
		c2.57-1.69,4.86-3.63,6.85-5.81v-6.54h7.17v9.17L342.49,503.84z M367.91,508.74v-16.89h-55.47v16.89h-7.17v-24.06h62.64v-1.27h7.17
		v25.33H367.91z M362.73,454h7.17v18.79c0,2.24-0.79,4.16-2.36,5.76c-1.58,1.6-3.52,2.41-5.82,2.41h-51.64v-25.42h52.65V454z
		 M362.73,462.71h-45.48v11.08h44.39c0.73,0,1.09-0.33,1.09-1V462.71z M346.75,503.57l33.32,13.89l-2.72,6.54l-33.41-13.8
		L346.75,503.57z"/>
	<linearGradient id="SVGID_5_" gradientUnits="userSpaceOnUse" x1="430.4311" y1="446.3358" x2="431.8059" y2="533.6348">
		<stop  offset="0" style="stop-color:#5995FD"/>
		<stop  offset="0.5208" style="stop-color:#4370BE"/>
		<stop  offset="1" style="stop-color:#22385F"/>
	</linearGradient>
	<path class="st5" d="M390.33,470.16c1.88-2.06,3.45-3.87,4.72-5.45c1.27-1.57,2.59-3.33,3.95-5.27c1.36-1.94,2.5-3.84,3.4-5.72
		l6.45,2.95c-0.3,0.54-0.6,1.09-0.91,1.66c-0.3,0.57-0.6,1.15-0.91,1.74h23.15v7.17h-10.89l3.09,4.09l-5.81,4.27l-6.17-8.35h-8.17
		c-1.69,2.18-3.21,4.01-4.54,5.49c-1.33,1.48-2.06,2.29-2.18,2.41L390.33,470.16z M421.92,524.45v-14.52h-28.41v-7.17h28.41v-5.36
		h-25.06v-7.17h25.06v-5.17h-22.6v-7.17h46.21c1.51,0,3.07-0.13,4.67-0.41c1.6-0.27,3.04-0.56,4.31-0.86
		c1.27-0.3,2.72-0.73,4.36-1.27l2.45,6.72c-0.12,0-0.65,0.17-1.59,0.5c-0.94,0.33-2.16,0.68-3.68,1.04c-1.51,0.36-3.19,0.7-5.04,1
		c-1.85,0.3-3.68,0.45-5.49,0.45H429v5.17h35.4v7.17H429v5.36h38.4v7.17H429v7.35h33.68c0.73,0,1.09-0.33,1.09-1v-3.63h7.08v3.63
		c0,2.24-0.79,4.16-2.36,5.76c-1.57,1.6-3.51,2.41-5.81,2.41H421.92z M449.79,456.68c-0.24,0.54-0.51,1.09-0.82,1.66
		c-0.3,0.57-0.61,1.15-0.91,1.74h23.06v7.17h-10.8l3,4.09l-5.72,4.27l-6.17-8.35h-8.26c-1.7,2.18-3.19,4.01-4.49,5.49
		c-1.3,1.48-2.01,2.29-2.13,2.41l-5.17-4.99c1.88-2.06,3.45-3.87,4.72-5.45c1.27-1.57,2.57-3.33,3.9-5.27
		c1.33-1.94,2.45-3.84,3.36-5.72L449.79,456.68z"/>
	<linearGradient id="SVGID_6_" gradientUnits="userSpaceOnUse" x1="520.8702" y1="444.9115" x2="522.245" y2="532.2105">
		<stop  offset="0" style="stop-color:#5995FD"/>
		<stop  offset="0.5208" style="stop-color:#4370BE"/>
		<stop  offset="1" style="stop-color:#22385F"/>
	</linearGradient>
	<path class="st6" d="M481.84,470.79h17.7v39.22l6.17-2.81l3,6.45l-23.24,10.71l-3-6.45l9.9-4.54v-35.4h-10.53V470.79z
		 M503.44,468.89l-19.43-8.17l2.81-6.63l19.43,8.26L503.44,468.89z M518.42,488.59v28.05h34.68c0.73,0,1.09-0.36,1.09-1.08v-11.18
		h7.17v11.26c0,2.3-0.79,4.24-2.36,5.81c-1.58,1.57-3.52,2.36-5.82,2.36h-41.93v-42.39h40.12c0.67,0,1-0.33,1-1v-16.43h-42.94v-7.17
		h42.94v-2.09h7.17v25.69c0,2.3-0.8,4.24-2.41,5.81c-1.6,1.57-3.53,2.36-5.76,2.36H518.42z"/>
</g>
<line class="st7" x1="211.09" y1="551.81" x2="296.35" y2="551.81"/>
<line class="st7" x1="477.74" y1="551.81" x2="563" y2="551.81"/>
<g>
	<text transform="matrix(1 0 0 1 318.6699 553.7725)"><tspan x="0" y="0" class="st8 st9 st10 st11">MEM</tspan><tspan x="118.2" y="0" class="st8 st9 st10 st12">O</tspan></text>
</g>
</svg>
