<?xml version="1.0" encoding="utf-8"?>
<!-- Generator: Adobe Illustrator 23.1.0, SVG Export Plug-In . SVG Version: 6.00 Build 0)  -->
<svg version="1.1" id="图层_1" xmlns="http://www.w3.org/2000/svg" xmlns:xlink="http://www.w3.org/1999/xlink" x="0px" y="0px"
	 viewBox="0 0 800 800" style="enable-background:new 0 0 800 800;" xml:space="preserve">
<style type="text/css">
	.st0{fill:#DBE1EA;}
	.st1{fill:url(#SVGID_1_);}
	.st2{fill:#FFFFFF;}
	.st3{fill:url(#SVGID_2_);}
	.st4{fill:#125488;}
	.st5{fill:url(#SVGID_3_);}
	.st6{fill:url(#SVGID_4_);}
	.st7{fill:url(#SVGID_5_);}
	.st8{fill:url(#SVGID_6_);}
	.st9{fill:url(#SVGID_7_);}
</style>
<g>
	<path class="st0" d="M808,129.85v538.92c0,76.06-61.63,137.85-137.85,137.85H131.22c-76.06,0-137.85-61.79-137.85-137.85V129.85
		C-6.63,53.63,55.16-8,131.22-8h538.92C746.37-8,808,53.63,808,129.85z"/>
	<linearGradient id="SVGID_1_" gradientUnits="userSpaceOnUse" x1="12.6674" y1="-68.7104" x2="387.6969" y2="425.7552">
		<stop  offset="0" style="stop-color:#FFFFFF"/>
		<stop  offset="1" style="stop-color:#FFFFFF;stop-opacity:0.1"/>
	</linearGradient>
	<path class="st1" d="M479.91-8c0,259.16-217.81,469.19-486.54,469.19V129.85C-6.63,53.63,55.16-8,131.22-8H479.91z"/>
	<g>
		<g>
			<g>
				<g>
					<path class="st2" d="M540.58,411.46c0.88,0.52,1.66,1.14,2.32,1.84h0.52C542.57,412.53,541.62,411.91,540.58,411.46z"/>
					<path class="st2" d="M566.84,331.08h-75.08c1.88-5.78,3.76-11.56,5.63-17.34c4.01-12.34,8.03-24.67,11.97-37.01
						c0.63-1.91,1.25-3.79,1.88-5.71c2.21-6.55,4.53-13.33,5.71-20.62c2.28-13.77-2.1-22.54-6.22-27.47
						c-4.16-5.05-12.19-11.12-26.7-11.45h-2.32c-23.94,0-45.77,8.14-64.92,24.23c-13.26,11.12-26.59,22.54-39.48,33.58l3.76-12
						l44.08-141.85c0.99-3.24,0.48-6.74-1.44-9.54c-1.91-2.8-5.01-4.53-8.36-4.79c-1.44-0.07-2.69-0.18-3.76-0.26
						c-2.21-0.18-4.09-0.33-6.11-0.33l-4.86-0.04c-4.9,0-9.83,0.04-14.77,0.04c-4.9,0.04-9.8,0.04-14.69,0.04
						c-10.97,0-19.37-0.07-27.29-0.22h-0.63c-10.72,0-17.82,5.45-21.14,16.2c-18.93,61.16-38.26,123.29-56.97,183.35l-20.62,66.32
						c-0.63,2.06-1.1,4.01-1.62,6.26c-0.26,1.07-0.52,2.25-0.85,3.57c-0.85,3.28-0.07,6.78,2.03,9.46c0.37,0.48,0.77,0.92,1.22,1.33
						c-4.27,1.51-7.36,5.6-7.36,10.42v5.01c0,6.11,4.97,11.05,11.05,11.05h2.36c-8.47,2.54-16.13,6.59-22.94,12.08
						c-5.01,4.05-9.02,8.51-12.12,13.51c-0.41,0.63-0.77,1.25-1.1,1.88c-1.07,1.88-2.03,3.87-2.84,5.93c-0.29,0.7-0.55,1.4-0.77,2.1
						c-0.74,2.1-1.33,4.31-1.8,6.55c-0.7,3.28,0.11,6.67,2.21,9.24c0.77,0.96,1.69,1.77,2.72,2.43c0.37,0.22,0.74,0.44,1.1,0.59
						c0.7,0.33,1.4,0.59,2.17,0.77c0.81,0.18,1.62,0.29,2.47,0.29h75.93c-2.84,8.8-5.49,17.12-8.21,25.41
						c-1.69,5.16-3.42,10.31-5.19,15.43c-3.28,9.57-6.67,19.48-9.57,29.46c-4.75,16.24-2.54,26.99,1.03,33.8
						c0.18,0.33,0.37,0.66,0.59,0.99c0.55,0.99,1.14,1.91,1.77,2.72c4.27,5.71,12.81,12.48,29.2,12.48c2.39,0,4.9-0.11,7.48-0.4
						c0.22-0.04,0.44-0.07,0.66-0.07c21.98-1.95,42.35-10.86,60.46-26.48c11.75-10.13,23.71-20.36,35.46-30.38l-28.98,93.42
						l-18.56,59.77c-1.03,3.39-0.44,7.03,1.66,9.83c0.81,1.14,1.84,2.06,3.02,2.8c0.29,0.18,0.59,0.37,0.88,0.52
						c1.55,0.96,3.31,1.51,5.16,1.58c1.55,0.07,2.91,0.15,4.12,0.22c2.36,0.15,4.38,0.26,6.48,0.26h1.84
						c5.45,0,10.94-0.04,16.39-0.07c5.45,0,10.86-0.04,16.31-0.04c9.5,0,17.27,0.07,24.38,0.29c0.44,0,0.85,0.04,1.25,0.04
						c15.8,0,20.7-10.09,23.05-17.64c19-61.79,38.55-124.5,57.48-185.19c6.52-20.99,13.07-41.98,19.63-62.97
						c0.66-2.25,1.22-4.42,1.77-6.74c0.26-1.07,0.52-2.25,0.85-3.5c0.77-3.17,0.15-6.52-1.73-9.17c-0.48-0.66-1.03-1.25-1.62-1.77
						h-0.52c-0.66-0.7-1.44-1.33-2.32-1.84c1.03,0.44,1.99,1.07,2.84,1.84h6.96c6.11,0,11.05-4.93,11.05-11.05v-5.01
						c0-6.11-4.93-11.05-11.05-11.05h-12.85c8.58-2.72,16.5-7.18,23.42-13.15c6.15-5.3,14.55-14.07,16.72-28.91
						c0.15-0.66,0.22-1.36,0.22-2.03C577.89,336.01,572.92,331.08,566.84,331.08z M316.1,386.2c7.92-2.8,15.47-7.29,22.76-13.44
						c16.9-14.32,34.25-28.69,51.04-42.61c-1.66,5.52-3.24,10.97-4.68,16.5c-3.42,13-2.17,23.46,3.68,31.15
						c2.8,3.65,6.48,6.44,11.01,8.4H316.1z M467.45,415.37c-0.52,0.22-1.07,0.48-1.62,0.74c-5.08,2.5-9.98,5.71-14.62,9.65
						c-11.34,9.61-22.98,19.26-34.25,28.58l-10.75,8.95c-2.65,2.17-5.27,4.38-7.92,6.55c0.04-0.11,0.07-0.22,0.11-0.29l0.11-0.44
						c-0.29,0.22-0.55,0.48-0.85,0.7c0.07-0.15,0.11-0.29,0.15-0.44l0.66-2.43c2.28-8.1,4.64-16.46,5.56-25.33
						c1.36-13.11-5.04-23.53-16.94-28.28h85.69C470.99,413.93,469.22,414.59,467.45,415.37z"/>
				</g>
			</g>
			<g>
				<linearGradient id="SVGID_2_" gradientUnits="userSpaceOnUse" x1="409.7869" y1="70.6077" x2="409.7869" y2="348.562">
					<stop  offset="0" style="stop-color:#37CAEC"/>
					<stop  offset="0.5078" style="stop-color:#2A93D5"/>
					<stop  offset="1" style="stop-color:#125488"/>
				</linearGradient>
				<path class="st3" d="M476.93,342.11c30.27,0,59.6,0,89.88,0c-1.4,10.34-6.6,16.98-13.1,22.6
					c-10.75,9.28-23.62,13.72-37.64,13.85c-32.56,0.29-65.14,0.31-97.7,0.01c-20.01-0.18-27.54-9.85-22.47-29.11
					c4.31-16.36,9.72-32.44,15.41-51.13c-3.97,3.15-6.2,4.87-8.36,6.66c-23.77,19.75-47.65,39.37-71.23,59.33
					c-11.57,9.8-24.32,15.1-39.7,14.48c-12.7-0.52-25.44-0.11-39.26-0.11c0.99-3.98,1.51-6.64,2.31-9.22
					c25.88-83.21,51.84-166.4,77.59-249.66c1.85-5.97,4.46-8.56,11.01-8.43c20.59,0.38,41.19,0.13,61.78,0.17
					c2.45,0,4.9,0.31,9.15,0.6c-19.55,62.88-38.81,124.87-58.08,186.86c0.36,0.41,0.73,0.82,1.09,1.23
					c2.18-1.71,4.43-3.35,6.54-5.15c19.92-16.97,39.7-34.11,59.75-50.93c17.26-14.49,37.13-22.11,59.88-21.62
					c16.2,0.35,24.94,9.99,22.29,26.05c-1.39,8.42-4.59,16.57-7.22,24.76c-6.36,19.88-12.88,39.71-19.3,59.57
					C478.7,335.52,478.04,338.17,476.93,342.11z"/>
			</g>
		</g>
		<g>
			<g>
				<rect x="248.99" y="397.24" class="st4" width="301.39" height="5.02"/>
			</g>
		</g>
		<g>
			<g>
				<linearGradient id="SVGID_3_" gradientUnits="userSpaceOnUse" x1="358.0629" y1="742.6224" x2="380.0623" y2="404.1698">
					<stop  offset="0" style="stop-color:#FFFFFF"/>
					<stop  offset="1" style="stop-color:#125488"/>
				</linearGradient>
				<path class="st5" d="M429.68,500.07c-2.06,1.6-4.19,3.12-6.18,4.82c-19.07,16.25-38.16,32.48-57.16,48.82
					c-15.66,13.47-33.52,21.72-54.23,23.42c-0.28,0.02-0.55,0.07-0.83,0.1c-24.07,2.4-35.19-11.21-27.88-34.47
					c4.84-15.39,10.18-30.63,15.2-45.97c4.12-12.59,8.11-25.23,12.57-39.15c-30.78,0-60.15,0-90.61,0
					c2.23-10.62,7.54-17.81,14.76-23.66c11.3-9.14,24.59-12.83,38.88-12.9c31.18-0.15,62.35-0.1,93.53,0
					c3.87,0.01,7.82,0.44,11.58,1.32c9.44,2.21,14.75,8.35,13.75,18.04c-0.9,8.75-3.49,17.39-5.88,25.92
					c-3.04,10.9-6.63,21.65-10.63,34.56c3.56-2.6,5.33-3.74,6.94-5.08c23.79-19.72,47.8-39.19,71.23-59.33
					c12.73-10.94,26.68-16.46,43.5-15.62c11.83,0.59,23.71,0.11,36.78,0.11c-1.09,4.41-1.65,7.32-2.52,10.13
					c-25.74,82.67-51.58,165.32-77.13,248.05c-2.06,6.65-4.87,9.29-12.11,9.14c-22.68-0.49-45.37-0.18-70.18-0.18
					c19.64-63.25,38.86-125.15,58.09-187.05C430.65,500.75,430.16,500.41,429.68,500.07z"/>
			</g>
			<g>
				<linearGradient id="SVGID_4_" gradientUnits="userSpaceOnUse" x1="370.4457" y1="721.9799" x2="378.0609" y2="446.564">
					<stop  offset="0" style="stop-color:#FFFFFF;stop-opacity:0.3"/>
					<stop  offset="1" style="stop-color:#125488"/>
				</linearGradient>
				<path class="st6" d="M430.43,500.23c-2.11,1.65-4.29,3.23-6.33,4.97c-18.93,16.13-37.9,32.21-56.73,48.46
					c-15.69,13.54-33.49,22.05-54.29,23.84c-0.28,0.02-0.55,0.07-0.83,0.1c-25.54,2.79-35.5-10.86-28.26-35.49
					c4.4-15,9.81-29.7,14.68-44.56c4.16-12.69,8.19-25.43,12.85-39.91c-16.02,0-30.92,0-45.82,0c-14.71,0-29.42,0-45.23,0
					c2.48-10.79,7.76-18.04,15.06-23.89c11.39-9.11,24.73-12.78,39.06-12.84c31.01-0.14,62.03-0.09,93.04,0
					c3.89,0.01,7.84,0.39,11.64,1.2c9.95,2.12,15.48,8.36,14.44,18.43c-0.91,8.79-3.56,17.44-5.95,26.01
					c-3.05,10.92-6.62,21.69-8.51,33.4c11.34-9.39,22.7-18.77,34.03-28.18c15.05-12.5,30.14-24.94,45.08-37.57
					c10.7-9.04,22.74-13.81,36.88-13.42c10.61,0.29,21.23,0,31.85,0.06c2.67,0.02,5.33,0.39,8.97,0.68
					c-0.99,3.9-1.58,6.83-2.46,9.66c-25.75,82.72-51.63,165.39-77.12,248.19c-2.32,7.53-5.58,10.05-13.41,9.82
					c-19.73-0.58-39.49-0.17-59.24-0.19c-2.75,0-5.5-0.24-10.1-0.46c19.59-63.09,38.9-125.24,58.2-187.39
					C431.43,500.85,430.93,500.54,430.43,500.23z"/>
			</g>
		</g>
	</g>
</g>
</svg>
