<?xml version="1.0" encoding="utf-8"?>
<!-- Generator: Adobe Illustrator 23.1.0, SVG Export Plug-In . SVG Version: 6.00 Build 0)  -->
<svg version="1.1" id="图层_1" xmlns="http://www.w3.org/2000/svg" xmlns:xlink="http://www.w3.org/1999/xlink" x="0px" y="0px"
	 viewBox="0 0 800 800" style="enable-background:new 0 0 800 800;" xml:space="preserve">
<style type="text/css">
	.st0{fill:url(#SVGID_1_);}
	.st1{fill:#5995FD;}
	.st2{fill:url(#SVGID_2_);}
	.st3{fill:url(#SVGID_3_);}
	.st4{fill:url(#SVGID_4_);}
	.st5{fill:url(#SVGID_5_);}
	.st6{fill:url(#SVGID_6_);}
	.st7{fill:none;stroke:#2E4C81;stroke-miterlimit:10;}
	.st8{fill:#2E4C81;}
	.st9{fill:url(#SVGID_7_);}
</style>
<linearGradient id="SVGID_1_" gradientUnits="userSpaceOnUse" x1="365.7728" y1="185.4394" x2="489.0978" y2="376.4429">
	<stop  offset="0" style="stop-color:#5995FD"/>
	<stop  offset="0.5208" style="stop-color:#4370BE"/>
	<stop  offset="1" style="stop-color:#22385F"/>
</linearGradient>
<path class="st0" d="M427.44,295.92v27.78h63.32v28.16h-89.12v-55.94c0-5.73,1.73-11.07,4.72-15.5c0.99-1.49,2.14-2.88,3.41-4.15
	c5.02-5.02,11.97-8.14,19.65-8.14h61.34v27.78H427.44z"/>
<g>
	<path class="st1" d="M332.18,221.88c0,6.45-4.11,11.95-9.86,13.99c-1.57,0.6-3.25,0.89-5.02,0.89c-8.22,0-14.88-6.67-14.88-14.88
		c0-1.35,0.18-2.64,0.54-3.87c1.69-6.35,7.48-11.01,14.35-11.01C325.52,207,332.18,213.67,332.18,221.88z"/>
</g>
<linearGradient id="SVGID_2_" gradientUnits="userSpaceOnUse" x1="341.9771" y1="200.8036" x2="465.3021" y2="391.807">
	<stop  offset="0" style="stop-color:#5995FD"/>
	<stop  offset="0.5208" style="stop-color:#4370BE"/>
	<stop  offset="1" style="stop-color:#22385F"/>
</linearGradient>
<path class="st2" d="M490.76,218.91v29.39h-71.99l-38.93,40.6l0.02,0.02l-18.83,20.44l-31.85-29.37l-0.95-0.87v72.75h-25.8v-88.39
	c0-0.4,0.02-0.79,0.06-1.17c0.5-5.16,3.99-9.68,9.17-12.52c3.55-1.94,7.9-3.1,12.6-3.1c3.12,0,6.07,0.5,8.73,1.41
	c1.96,0.65,3.79,1.55,5.4,2.6c0.06,0.04,0.1,0.1,0.16,0.14l4.5,4.17l17.86,16.45l22.88-23.87l15.88-16.55l11.61-12.12H490.76z"/>
<g>
	<linearGradient id="SVGID_3_" gradientUnits="userSpaceOnUse" x1="249.5045" y1="449.185" x2="250.8793" y2="536.484">
		<stop  offset="0" style="stop-color:#5995FD"/>
		<stop  offset="0.5208" style="stop-color:#4370BE"/>
		<stop  offset="1" style="stop-color:#22385F"/>
	</linearGradient>
	<path class="st3" d="M230.37,457.09c-1.39,2.97-2.95,5.84-4.67,8.62c-1.73,2.78-3.36,5.25-4.9,7.4c-1.54,2.15-2.88,3.9-3.99,5.26
		c-1.12,1.36-1.74,2.1-1.86,2.22l-5.36-4.72c0-0.06,0.51-0.71,1.54-1.95c1.03-1.24,2.28-2.87,3.77-4.9
		c1.48-2.03,3.04-4.34,4.67-6.95c1.63-2.6,3.06-5.26,4.27-7.99L230.37,457.09z M211.13,489.77h77.62v7.17h-48.3l-14.34,18.88
		l43.76-3.63l-4.27-6.9l6.08-3.81l12.53,20.33l-5.99,3.72l-4.08-6.54l-57.01,4.72v-7.9l14.43-18.88h-20.43V489.77z M225.38,473.97
		h49.11v7.17h-49.11V473.97z M276.94,455.09l13.34,22.24l-6.08,3.72l-11.35-18.79h-40.94v-7.17H276.94z"/>
	<linearGradient id="SVGID_4_" gradientUnits="userSpaceOnUse" x1="338.7586" y1="447.7794" x2="340.1334" y2="535.0784">
		<stop  offset="0" style="stop-color:#5995FD"/>
		<stop  offset="0.5208" style="stop-color:#4370BE"/>
		<stop  offset="1" style="stop-color:#22385F"/>
	</linearGradient>
	<path class="st4" d="M342.49,503.84c-2.24,2.66-4.8,5.01-7.67,7.04c-2.88,2.03-5.83,3.8-8.85,5.31c-3.03,1.51-6.01,2.78-8.94,3.81
		c-2.94,1.03-5.58,1.86-7.94,2.5c-2.36,0.64-4.3,1.1-5.81,1.41c-1.51,0.3-2.36,0.48-2.54,0.54l-1.09-7.08c0.06,0,0.73-0.12,2-0.36
		c1.27-0.24,2.92-0.64,4.95-1.18c2.03-0.55,4.33-1.26,6.9-2.13c2.57-0.88,5.2-1.95,7.9-3.22c2.69-1.27,5.32-2.75,7.9-4.45
		c2.57-1.69,4.86-3.63,6.85-5.81v-6.54h7.17v9.17L342.49,503.84z M367.91,508.74v-16.89h-55.47v16.89h-7.17v-24.06h62.64v-1.27h7.17
		v25.33H367.91z M362.73,454h7.17v18.79c0,2.24-0.79,4.16-2.36,5.76c-1.58,1.6-3.52,2.41-5.82,2.41h-51.64v-25.42h52.65V454z
		 M362.73,462.71h-45.48v11.08h44.39c0.73,0,1.09-0.33,1.09-1V462.71z M346.75,503.57l33.32,13.89l-2.72,6.54l-33.41-13.8
		L346.75,503.57z"/>
	<linearGradient id="SVGID_5_" gradientUnits="userSpaceOnUse" x1="430.4311" y1="446.3358" x2="431.8059" y2="533.6348">
		<stop  offset="0" style="stop-color:#5995FD"/>
		<stop  offset="0.5208" style="stop-color:#4370BE"/>
		<stop  offset="1" style="stop-color:#22385F"/>
	</linearGradient>
	<path class="st5" d="M390.33,470.16c1.88-2.06,3.45-3.87,4.72-5.45c1.27-1.57,2.59-3.33,3.95-5.27c1.36-1.94,2.5-3.84,3.4-5.72
		l6.45,2.95c-0.3,0.54-0.6,1.09-0.91,1.66c-0.3,0.57-0.6,1.15-0.91,1.74h23.15v7.17h-10.89l3.09,4.09l-5.81,4.27l-6.17-8.35h-8.17
		c-1.69,2.18-3.21,4.01-4.54,5.49c-1.33,1.48-2.06,2.29-2.18,2.41L390.33,470.16z M421.92,524.45v-14.52h-28.41v-7.17h28.41v-5.36
		h-25.06v-7.17h25.06v-5.17h-22.6v-7.17h46.21c1.51,0,3.07-0.13,4.67-0.41c1.6-0.27,3.04-0.56,4.31-0.86
		c1.27-0.3,2.72-0.73,4.36-1.27l2.45,6.72c-0.12,0-0.65,0.17-1.59,0.5c-0.94,0.33-2.16,0.68-3.68,1.04c-1.51,0.36-3.19,0.7-5.04,1
		c-1.85,0.3-3.68,0.45-5.49,0.45H429v5.17h35.4v7.17H429v5.36h38.4v7.17H429v7.35h33.68c0.73,0,1.09-0.33,1.09-1v-3.63h7.08v3.63
		c0,2.24-0.79,4.16-2.36,5.76c-1.57,1.6-3.51,2.41-5.81,2.41H421.92z M449.79,456.68c-0.24,0.54-0.51,1.09-0.82,1.66
		c-0.3,0.57-0.61,1.15-0.91,1.74h23.06v7.17h-10.8l3,4.09l-5.72,4.27l-6.17-8.35h-8.26c-1.7,2.18-3.19,4.01-4.49,5.49
		c-1.3,1.48-2.01,2.29-2.13,2.41l-5.17-4.99c1.88-2.06,3.45-3.87,4.72-5.45c1.27-1.57,2.57-3.33,3.9-5.27
		c1.33-1.94,2.45-3.84,3.36-5.72L449.79,456.68z"/>
	<linearGradient id="SVGID_6_" gradientUnits="userSpaceOnUse" x1="520.8702" y1="444.9115" x2="522.245" y2="532.2105">
		<stop  offset="0" style="stop-color:#5995FD"/>
		<stop  offset="0.5208" style="stop-color:#4370BE"/>
		<stop  offset="1" style="stop-color:#22385F"/>
	</linearGradient>
	<path class="st6" d="M481.84,470.79h17.7v39.22l6.17-2.81l3,6.45l-23.24,10.71l-3-6.45l9.9-4.54v-35.4h-10.53V470.79z
		 M503.44,468.89l-19.43-8.17l2.81-6.63l19.43,8.26L503.44,468.89z M518.42,488.59v28.05h34.68c0.73,0,1.09-0.36,1.09-1.08v-11.18
		h7.17v11.26c0,2.3-0.79,4.24-2.36,5.81c-1.58,1.57-3.52,2.36-5.82,2.36h-41.93v-42.39h40.12c0.67,0,1-0.33,1-1v-16.43h-42.94v-7.17
		h42.94v-2.09h7.17v25.69c0,2.3-0.8,4.24-2.41,5.81c-1.6,1.57-3.53,2.36-5.76,2.36H518.42z"/>
</g>
<line class="st7" x1="211.09" y1="551.81" x2="296.35" y2="551.81"/>
<line class="st7" x1="477.74" y1="551.81" x2="563" y2="551.81"/>
<g>
	<g>
		<path class="st8" d="M335.95,556.9h-2.15v-16.57h-0.14l-4.29,11.16h-1.9l-4.26-11.16h-0.16v16.57h-2.15v-16.57h-0.6v-2.15h4.35
			l3.75,9.85l3.78-9.85h3.75V556.9z"/>
		<path class="st8" d="M360.76,540.3v-2.15h13.31v2.15H360.76z M361.44,556.9v-17.52h2.15v15.37h10.67v2.15H361.44z M361.63,548.6
			v-2.15h10.99v2.15H361.63z"/>
		<path class="st8" d="M413.96,556.9h-2.15v-16.57h-0.14l-4.29,11.16h-1.9l-4.26-11.16h-0.16v16.57h-2.15v-16.57h-0.6v-2.15h4.35
			l3.75,9.85l3.78-9.85h3.75V556.9z"/>
		<path class="st8" d="M445.78,556.58c-1.03,0-2-0.24-2.92-0.72c-0.91-0.48-1.72-1.18-2.43-2.11c-0.68-0.87-1.2-1.85-1.56-2.95
			s-0.54-2.25-0.54-3.47c0-1.22,0.18-2.38,0.54-3.48s0.88-2.09,1.56-2.97c0.71-0.92,1.52-1.63,2.43-2.11
			c0.91-0.48,1.89-0.72,2.92-0.72c1.01,0,1.98,0.24,2.89,0.72c0.91,0.48,1.72,1.18,2.43,2.11c0.68,0.87,1.2,1.86,1.56,2.97
			s0.54,2.27,0.54,3.48c0,1.21-0.18,2.37-0.54,3.47s-0.88,2.08-1.56,2.95c-0.71,0.92-1.52,1.63-2.43,2.11
			C447.75,556.33,446.79,556.58,445.78,556.58z M445.78,540.2c-0.72,0-1.41,0.19-2.05,0.56c-0.64,0.37-1.2,0.88-1.68,1.52
			c-0.48,0.64-0.86,1.4-1.14,2.27c-0.28,0.87-0.42,1.8-0.42,2.78s0.14,1.9,0.42,2.76c0.28,0.86,0.66,1.61,1.14,2.26
			c0.48,0.64,1.04,1.15,1.68,1.52c0.64,0.37,1.33,0.56,2.05,0.56s1.41-0.19,2.05-0.56c0.64-0.37,1.2-0.88,1.67-1.52
			c0.47-0.64,0.85-1.4,1.13-2.26c0.28-0.86,0.42-1.78,0.42-2.76s-0.14-1.91-0.42-2.78c-0.28-0.87-0.66-1.63-1.13-2.27
			c-0.47-0.64-1.03-1.15-1.67-1.52S446.5,540.2,445.78,540.2z"/>
	</g>
</g>
<linearGradient id="SVGID_7_" gradientUnits="userSpaceOnUse" x1="529.0535" y1="359.9564" x2="281.5918" y2="233.476">
	<stop  offset="0" style="stop-color:#269CCE"/>
	<stop  offset="0.9544" style="stop-color:#036EB7"/>
</linearGradient>
<path class="st9" d="M521.61,312.64c-22.85,77.58-105.57,111.99-171.65,89.66c-63.3-21.27-102.63-87.38-89.15-152.71
	c8.01-39.15,28.97-69.52,63.47-89.93c34.6-20.21,71.35-23.62,110.13-11.92c-9.97-8.32-49.78-14.27-72.89-11.39
	c-25.09,2.91-47.94,11.63-68.36,26.07c-53.61,37.9-74.76,107.15-53.78,168c23.63,68.44,91.83,105.09,154.55,98.08
	C458.92,421.07,509.56,373.01,521.61,312.64L521.61,312.64z"/>
</svg>
